<?xml version="1.0" standalone="no"?>
<!DOCTYPE svg PUBLIC "-//W3C//DTD SVG 20010904//EN"
 "http://www.w3.org/TR/2001/REC-SVG-20010904/DTD/svg10.dtd">
<svg version="1.0" xmlns="http://www.w3.org/2000/svg"
 width="948.000000pt" height="264.000000pt" viewBox="0 0 948.000000 264.000000"
 preserveAspectRatio="xMidYMid meet">

<g transform="translate(0.000000,264.000000) scale(0.100000,-0.100000)"
fill="#000000" stroke="none">
<path d="M2367 2623 c1305 -2 3441 -2 4745 0 1305 1 238 2 -2372 2 -2610 0
-3677 -1 -2373 -2z"/>
<path d="M748 2094 c-11 -23 -15 -24 -62 -17 -28 5 -98 8 -156 7 -94 -1 -111
-4 -165 -30 -78 -37 -168 -126 -200 -198 -67 -151 -53 -346 33 -459 44 -59
135 -122 284 -199 163 -84 198 -113 198 -167 0 -113 -180 -118 -376 -11 l-72
39 -11 -42 c-28 -106 -81 -331 -78 -333 14 -14 178 -87 237 -106 64 -20 96
-23 220 -23 131 0 150 3 200 24 149 66 235 161 280 310 18 60 21 89 18 169 -6
115 -30 188 -88 261 -47 59 -89 89 -235 166 -183 96 -220 127 -213 182 11 92
211 93 356 3 26 -16 50 -26 53 -22 8 10 99 385 95 390 -4 3 -204 56 -289 76
-12 3 -22 -4 -29 -20z"/>
<path d="M1405 2041 c-3 -12 -22 -93 -41 -180 -19 -86 -37 -164 -40 -173 -4
-15 1 -18 35 -18 22 0 42 -4 45 -8 2 -4 -2 -32 -10 -62 -8 -30 -46 -185 -85
-345 -38 -159 -90 -371 -114 -470 -25 -100 -45 -188 -45 -198 0 -16 18 -17
208 -17 l208 0 17 72 c9 40 22 97 28 126 l11 53 146 -3 147 -3 24 -122 25
-123 218 0 c120 0 218 4 218 8 0 5 -23 105 -51 223 -28 118 -59 250 -69 294
-10 44 -34 145 -53 225 -60 247 -139 582 -156 657 -9 39 -19 74 -22 77 -3 4
-148 7 -322 9 l-316 2 -6 -24z m425 -696 c21 -93 36 -173 33 -177 -6 -10 -164
-10 -179 0 -8 5 0 55 27 172 21 91 44 183 50 205 l12 40 10 -35 c5 -19 26
-111 47 -205z"/>
<path d="M2511 2055 c-5 -5 -18 -55 -30 -110 -37 -167 -53 -239 -57 -257 -4
-14 3 -17 38 -20 l43 -3 3 -548 2 -547 198 2 197 3 3 273 c1 149 6 272 10 272
4 0 60 -123 124 -273 l117 -272 414 -3 415 -2 7 42 c4 24 13 68 20 98 7 30 16
67 19 82 l6 28 145 0 c128 0 144 -2 149 -17 2 -10 15 -66 27 -125 l22 -108
219 0 c120 0 218 2 218 5 0 2 -18 80 -40 172 -23 92 -54 224 -70 293 -17 69
-48 199 -69 290 -22 91 -53 224 -70 295 -17 72 -48 199 -69 283 l-37 154 -320
-1 -320 -1 -42 -187 c-23 -104 -42 -191 -43 -195 0 -5 18 -8 40 -8 49 0 49 2
10 -155 -50 -202 -168 -687 -192 -789 -12 -53 -25 -96 -29 -96 -3 0 -20 30
-37 68 -17 37 -51 110 -75 162 -43 92 -68 147 -127 275 -15 33 -42 90 -59 128
-17 37 -31 72 -31 77 0 5 68 168 150 360 83 193 150 354 150 358 0 4 -90 7
-200 7 l-199 0 -92 -230 c-51 -126 -101 -250 -113 -275 l-21 -45 -5 273 -5
274 -193 1 c-119 1 -197 -2 -201 -8z m1689 -493 c0 -4 20 -95 44 -201 31 -140
40 -194 31 -197 -6 -3 -50 -4 -96 -2 l-84 3 3 30 c2 17 18 93 37 170 18 77 36
155 40 173 6 28 25 46 25 24z"/>
</g>
</svg>
